<mxfile host="app.diagrams.net" modified="2023-06-27T09:18:08.799Z" agent="Mozilla/5.0 (Windows NT 10.0; Win64; x64) AppleWebKit/537.36 (KHTML, like Gecko) Chrome/114.0.0.0 Safari/537.36 Edg/114.0.1823.58" version="21.5.0" etag="HkkTCoPOGi4WJm3hZE3T" type="github">
  <diagram name="Page-1" id="5b2Dcp8xyWwm2maruOey">
    <mxGraphModel>
      <root>
        <mxCell id="0" />
        <mxCell id="1" parent="0" />
      </root>
    </mxGraphModel>
  </diagram>
</mxfile>
